<svg xmlns="http://www.w3.org/2000/svg" width="16" height="16" viewBox="0 0 24 24" fill="none">
  <!-- Blue background circle -->
  <circle cx="12" cy="12" r="12" fill="#3B82F6"/>
  <!-- Wallet icon with white color to contrast with blue background -->
  <path d="M19 7V5a2 2 0 0 0-2-2H4a2 2 0 0 0-2 2v11a2 2 0 0 0 2 2h3.5" fill="none" stroke="white" stroke-width="2" stroke-linecap="round" stroke-linejoin="round"/>
  <path d="M10 18h8a2 2 0 0 0 2-2v-1.5" fill="none" stroke="white" stroke-width="2" stroke-linecap="round" stroke-linejoin="round"/>
  <path d="M16 14h2a2 2 0 0 1 2 2v1.5a3 3 0 0 1-3 3H10" fill="none" stroke="white" stroke-width="2" stroke-linecap="round" stroke-linejoin="round"/>
  <path d="M15 7v6" fill="none" stroke="white" stroke-width="2" stroke-linecap="round" stroke-linejoin="round"/>
  <path d="M12 7v3" fill="none" stroke="white" stroke-width="2" stroke-linecap="round" stroke-linejoin="round"/>
</svg>